<?xml version="1.0" encoding="utf-8"?>
<?xml-stylesheet type="text/xsl" href="rss1.xsl"?>
<rss version="2.0" xmlns:atom="http://www.w3.org/2005/Atom" xmlns:content="http://purl.org/rss/1.0/modules/content/" xmlns:dc="http://purl.org/dc/elements/1.1/" xmlns:media="http://search.yahoo.com/mrss/">
<channel>
 <title>Getty</title>
 <link>http://www.gettyimg.com/</link>
 <atom:link href="http://www.gettyimg.com/" rel="self" type="application/rss+xml" />

 
                <item>
                <title><![CDATA[【DVD】DVD5 - Destiny's Child - #1's (Japan Bonus DVD) ISO - 2005]]></title>
                <link><![CDATA[https://sharemania.us/threads/destinys-child-1s-japan-bonus-dvd-iso-2005.232135/]]></link>
                <description><![CDATA[<article>
<blockquote class="messageText SelectQuoteContainer ugc baseHtml">
<img src="https://i.imgur.com/n0x0qnQ.jpg" class="bbCodeImage LbImage" alt="[​IMG]" data-url="https://i.imgur.com/n0x0qnQ.jpg" style=""> <img src="https://i.imgur.com/2ZrUGJd.jpg" class="bbCodeImage LbImage" alt="[​IMG]" data-url="https://i.imgur.com/2ZrUGJd.jpg" style=""> <img src="https://i.imgur.com/4tbtz8Y.jpg" class="bbCodeImage LbImage" alt="[​IMG]" data-url="https://i.imgur.com/4tbtz8Y.jpg" style=""> <img src="https://i.imgur.com/Miuo2yH.jpg" class="bbCodeImage LbImage" alt="[​IMG]" data-url="https://i.imgur.com/Miuo2yH.jpg" style=""><br>
<b>Tracklist:<br>
1.</b> "Live DVD Teaser: Destiny's Child "Live DVD" from Their Last Tour Coming February 2006" <br>
<b>2.</b> "No, No, No Part 2" (featuring Wyclef Jean)<br>
<b>3.</b> "Say My Name"<br>
<b>4.</b> "Survivor"<br>
<b>5.</b> "Bootylicious"<br>
<b>6.</b> "Independent Women Part I"<br>
<b>7.</b> "Lose My Breath"<br>
<b>8.</b> "Soldier" (featuring T.I. and Lil Wayne)<br>
<b>9.</b> "Cater 2 U"<br>
<div class="ToggleTriggerAnchor bbCodeSpoilerContainer">
<button type="button" class="button bbCodeSpoilerButton ToggleTrigger Tooltip JsOnly" data-target="> .SpoilerTarget"><span>Spoiler: <span class="SpoilerTitle">MediaInfo</span></span></button>
<div class="SpoilerTarget bbCodeSpoilerText">Format : ISO 9660 / DVD Video<br>
Format profile : Program<br>
File size : 2.33 GiB<br>
Duration : 30 min 56 s<br>
Overall bit rate mode : Variable<br>
Overall bit rate : 10.8 Mb/s<br>
Frame rate : 29.970 FPS<br>
Movie name : DESTINYS_CHILD_NUMBER_ONES<br>
Encoded date : 2023-09-16 17:33:37.00+61:00<br>
<br>
Video<br>
ID : 224 (0xE0)<br>
Format : MPEG Video<br>
Format version : Version 2<br>
Format profile : Main@Main<br>
Format settings : CustomMatrix / BVOP<br>
Format settings, BVOP : Yes<br>
Format settings, Matrix : Custom<br>
Format settings, GOP : Variable<br>
Format settings, picture struc : Frame<br>
Duration : 30 min 56 s<br>
Bit rate mode : Variable<br>
Bit rate : 8 794 kb/s<br>
Maximum bit rate : 9 800 kb/s<br>
Width : 720 pixels<br>
Height : 480 pixels<br>
Display aspect ratio : 4:3<br>
Frame rate : 29.970 (29970/1000) FPS<br>
Original frame rate : 29.970 (30000/1001) FPS<br>
Standard : NTSC<br>
Color space : YUV<br>
Chroma subsampling : 4:2:0<br>
Bit depth : 8 bits<br>
Scan type : Interlaced<br>
Scan order : Top Field First<br>
Compression mode : Lossy<br>
Bits/(Pixel*Frame) : 0.849<br>
Time code of first frame : 00:59:59:20<br>
Time code source : Group of pictures header<br>
Stream size : 1.90 GiB (82%)<br>
Source : VIDEO_TS\VTS_01_0.IFO<br>
<br>
Audio<br>
ID : 189 (0xBD)-160 (0xA0)<br>
Format : PCM<br>
Format settings : Big / Signed<br>
Muxing mode : DVD-Video<br>
Duration : 30 min 56 s<br>
Bit rate mode : Constant<br>
Bit rate : 1 536 kb/s<br>
Channel(s) : 2 channels<br>
Sampling rate : 48.0 kHz<br>
Bit depth : 16 bits<br>
Stream size : 340 MiB (14%)<br>
Language : English<br>
Source : VIDEO_TS\VTS_01_0.IFO<br>
<br>
Menu<br>
Duration : 30 min 56 s<br>
00:00:00.000 : Chapter 1<br>
00:03:26.333 : Chapter 2<br>
00:07:26.000 : Chapter 3<br>
00:11:35.000 : Chapter 4<br>
00:15:05.333 : Chapter 5<br>
00:19:02.000 : Chapter 6<br>
00:22:40.000 : Chapter 7<br>
00:26:45.333 : Chapter 8<br>
00:30:54.667 : Chapter 9<br>
List (Audio) : 0<br>
Source : VIDEO_TS\VTS_01_0.IFO</div>
</div>
<div class="bbCodeBlock bbCodeVfcHH HiddenContent">
<div class="attribution type">Hidden Content:</div>
<blockquote>You must either reply or click 'Like' to see the hidden information contained here.</blockquote>
</div>
<div class="bbCodeBlock bbCodeVfcHH HiddenContent">
<div class="attribution type">Hidden Content:</div>
<blockquote>You must reply before you can see the hidden data contained here.</blockquote>
</div>
<div class="messageTextEndMarker">&nbsp;</div>
</blockquote>
</article>]]></description>
                <author><![CDATA[JrAleixo]]></author>
                </item>

                </channel></rss>